<svg width="92" height="92" viewBox="0 0 92 92" fill="none" xmlns="http://www.w3.org/2000/svg">
<g clip-path="url(#clip0_1_3)">
<path d="M56 77.5C55.5781 77.9161 49.755 82.101 49.2059 82.3238C48.6568 82.5466 48.0691 82.659 47.4766 82.6546C46.884 82.6502 46.2981 82.5291 45.7523 82.2981C45.2066 82.0672 44.7117 81.7309 44.296 81.3086L17.0713 53.6887C15.3191 51.9111 15.7812 50.2944 17.1144 47.3065L28.5939 19.6289C29.4457 18.7889 30.5962 18.3216 31.7925 18.3297C32.9888 18.3378 34.1329 18.8206 34.9733 19.6721L36 21" stroke="#4E1E03"/>
<path d="M52.5985 76.2714L52.5984 76.2713L24.8561 48.149C24.856 48.149 24.856 48.1489 24.856 48.1489C24.4518 47.7388 24.2391 47.3995 24.1385 47.0942C24.0404 46.7963 24.0353 46.4894 24.1187 46.1165C24.2047 45.7319 24.3804 45.2945 24.6339 44.7424C24.7311 44.5306 24.8445 44.2923 24.9671 44.0346C25.1459 43.659 25.3442 43.2421 25.5407 42.8062L38.8156 15.6262C39.5748 14.9079 40.5803 14.5082 41.6218 14.5117C42.6907 14.5153 43.7098 14.9431 44.456 15.7001L71.6828 43.3221C72.4826 44.1335 72.7262 44.7861 72.6716 45.5834C72.612 46.4533 72.1992 47.5242 71.5122 49.1717L58.2397 76.3447C57.4804 77.063 56.4748 77.4628 55.4332 77.4594C54.3642 77.456 53.3449 77.0283 52.5985 76.2714Z" stroke="#4E1E03"/>
<path d="M31.2286 21.6011C31.2845 21.4749 31.2274 21.3272 31.1011 21.2714C30.9749 21.2155 30.8272 21.2726 30.7714 21.3989L31.2286 21.6011ZM19.5 47.5L19.2714 47.3989L19.2627 47.4185L19.2575 47.4394L19.5 47.5ZM30.7714 21.3989L19.2714 47.3989L19.7286 47.6011L31.2286 21.6011L30.7714 21.3989ZM19.2575 47.4394C19.0856 48.127 18.9314 49.2302 19.0259 50.3216C19.1198 51.4049 19.4645 52.5359 20.35 53.2L20.65 52.8C19.9355 52.2641 19.6136 51.3118 19.5241 50.2784C19.4353 49.2532 19.5811 48.2064 19.7425 47.5606L19.2575 47.4394Z" fill="#4E2503"/>
<path d="M33.2255 22.608C33.2851 22.4835 33.2325 22.3342 33.108 22.2745C32.9835 22.2149 32.8342 22.2675 32.7745 22.392L33.2255 22.608ZM21.5 46.5L21.2745 46.392L21.2648 46.4124L21.2588 46.4342L21.5 46.5ZM32.7745 22.392L21.2745 46.392L21.7255 46.608L33.2255 22.608L32.7745 22.392ZM21.2588 46.4342C21.004 47.3684 20.7718 48.8021 20.9141 50.0655C20.9853 50.6976 21.1523 51.3068 21.4748 51.7903C21.8027 52.2818 22.2861 52.6345 22.9589 52.7466L23.0411 52.2534C22.5139 52.1655 22.1473 51.8974 21.8908 51.5128C21.6289 51.1203 21.4772 50.5983 21.4109 50.0095C21.2782 48.8312 21.496 47.465 21.7412 46.5658L21.2588 46.4342Z" fill="#4E2503"/>
<path d="M24.8355 48.6989C24.3301 48.1861 24.0112 47.686 23.8446 47.1622C21.4112 49.1536 18.6657 50.5834 15.7592 50.716C15.7126 51.6858 16.0375 52.5169 16.8954 53.3872L44.1215 81.0085C44.537 81.4308 45.0317 81.7671 45.5773 81.9981C46.1229 82.2291 46.7086 82.3504 47.3011 82.3549C47.8935 82.3594 48.4811 82.2472 49.0301 82.0245C49.5791 81.8019 58.0117 76.7389 58.4336 76.323L55.3163 77.2076L52.5775 76.323C52.4766 76.2386 52.156 76.4162 52.0631 76.323L24.8348 48.6996L24.8355 48.6989Z" fill="#4E2503"/>
</g>
<defs>
<clipPath id="clip0_1_3">
<rect width="64" height="64" fill="white" transform="translate(0.746342 45.6739) rotate(-44.5872)"/>
</clipPath>
</defs>
</svg>
